<svg id="Layer_1" data-name="Layer 1" xmlns="http://www.w3.org/2000/svg" viewBox="0 0 250 250"><path d="M170.57,166q-4.17-5.73-6.27-9.35c-1.39-2.44-2.08-4.27-2.08-5.55,0-1.47.85-2.32,2.53-2.53q22.51-5.06,36.77-18,19.65-17.73,19.66-47.84,0-27.57-19-47.84c-12.69-13.5-42.92-24.64-69.52-23.12H89.23q-25.65,0-41,17T32.82,69.69q0,30.12,25.67,44.05,23.76,9.83,47.86,19.34,25.68,13,25.67,40.24,0,15.56-12,27.25t-27.9,11.75q-15.87,0-26.79-10.16t-14.1-26L27.57,186.26a3,3,0,0,0-1.73,3.52q5.88,21.78,25.69,36.15,19.32,14,41.51,13.95,26.29,0,46.12-19.5A64,64,0,0,0,154.83,196a2.76,2.76,0,0,1,4.85-.86l33,43.57a2.88,2.88,0,0,0,2.32,1.13l29.21-.46Zm-38.89-48.25,0,.15c-5.95-3.85-21.09-11-46.29-21.87Q59.76,84.92,59.77,69.36a33.28,33.28,0,0,1,8.55-22.5Q76.87,37.05,89.23,37L115,36.12l27.28-.1c12.73-.05,31.53,6.26,40.41,15.39a40.72,40.72,0,0,1,12.14,29.38q0,19.13-12.77,32.73c-6.61,7-16.41,10.4-26,10.37C144.83,123.85,141.06,123.26,131.68,117.72Z"/></svg>